<svg height="37" width="30" xmlns="http://www.w3.org/2000/svg"><linearGradient id="a" x1="0%" x2="0%" y1="0%" y2="100%"><stop offset="0" stop-color="#13d8a7"/><stop offset="1" stop-color="#23a695"/></linearGradient><path d="M28.221 28.356l-9.828 6.069C15 36.522 15 36.522 11.61 34.427c-3.062-1.89-8.985-5.546-9.856-6.085C0 27.139 0 25.219 0 25.219V10.78s0-2.089 1.77-3.137l9.84-6.076C15-.525 15-.525 18.396 1.571l9.825 6.067c1.779 1.106 1.778 3.138 1.778 3.138V25.22s.001 2.011-1.778 3.136zm-9.665-17.66L15 15.285l-3.556-4.589H7.223l5.666 7.314-5.662 7.31h4.221L15 20.735l3.552 4.585h4.221l-5.662-7.31 5.666-7.314z" fill="#fff" fill-rule="evenodd"/><path d="M28.221 28.356l-9.828 6.069C15 36.522 15 36.522 11.61 34.427c-3.062-1.89-8.985-5.546-9.856-6.085C0 27.139 0 25.219 0 25.219V10.78s0-2.089 1.77-3.137l9.84-6.076C15-.525 15-.525 18.396 1.571l9.825 6.067c1.779 1.106 1.778 3.138 1.778 3.138V25.22s.001 2.011-1.778 3.136zm-9.665-17.66L15 15.285l-3.556-4.589H7.223l5.666 7.314-5.662 7.31h4.221L15 20.735l3.552 4.585h4.221l-5.662-7.31 5.666-7.314z" fill="url(#a)"/></svg>